<?xml version="1.0" standalone="no"?>
<svg xmlns:xlink="http://www.w3.org/1999/xlink" id="wave" style="transform:rotate(180deg); transition: 0.3s" viewBox="0 0 1440 100" version="1.1" xmlns="http://www.w3.org/2000/svg"><defs><linearGradient id="sw-gradient-0" x1="0" x2="0" y1="1" y2="0"><stop stop-color="rgba(255, 255, 255, 1)" offset="0%"/><stop stop-color="rgba(255, 255, 255, 1)" offset="100%"/></linearGradient></defs><path style="transform:translate(0, 0px); opacity:1" fill="url(#sw-gradient-0)" d="M0,50L30,41.7C60,33,120,17,180,15C240,13,300,27,360,26.7C420,27,480,13,540,18.3C600,23,660,47,720,46.7C780,47,840,23,900,11.7C960,0,1020,0,1080,6.7C1140,13,1200,27,1260,28.3C1320,30,1380,20,1440,25C1500,30,1560,50,1620,60C1680,70,1740,70,1800,61.7C1860,53,1920,37,1980,25C2040,13,2100,7,2160,10C2220,13,2280,27,2340,28.3C2400,30,2460,20,2520,23.3C2580,27,2640,43,2700,45C2760,47,2820,33,2880,33.3C2940,33,3000,47,3060,48.3C3120,50,3180,40,3240,40C3300,40,3360,50,3420,46.7C3480,43,3540,27,3600,28.3C3660,30,3720,50,3780,50C3840,50,3900,30,3960,20C4020,10,4080,10,4140,18.3C4200,27,4260,43,4290,51.7L4320,60L4320,100L4290,100C4260,100,4200,100,4140,100C4080,100,4020,100,3960,100C3900,100,3840,100,3780,100C3720,100,3660,100,3600,100C3540,100,3480,100,3420,100C3360,100,3300,100,3240,100C3180,100,3120,100,3060,100C3000,100,2940,100,2880,100C2820,100,2760,100,2700,100C2640,100,2580,100,2520,100C2460,100,2400,100,2340,100C2280,100,2220,100,2160,100C2100,100,2040,100,1980,100C1920,100,1860,100,1800,100C1740,100,1680,100,1620,100C1560,100,1500,100,1440,100C1380,100,1320,100,1260,100C1200,100,1140,100,1080,100C1020,100,960,100,900,100C840,100,780,100,720,100C660,100,600,100,540,100C480,100,420,100,360,100C300,100,240,100,180,100C120,100,60,100,30,100L0,100Z"/><defs><linearGradient id="sw-gradient-1" x1="0" x2="0" y1="1" y2="0"><stop stop-color="rgba(253.719, 253.719, 253.719, 1)" offset="0%"/><stop stop-color="rgba(255, 255, 255, 1)" offset="100%"/></linearGradient></defs><path style="transform:translate(0, 50px); opacity:0.9" fill="url(#sw-gradient-1)" d="M0,30L30,28.3C60,27,120,23,180,31.7C240,40,300,60,360,68.3C420,77,480,73,540,70C600,67,660,63,720,66.7C780,70,840,80,900,81.7C960,83,1020,77,1080,70C1140,63,1200,57,1260,50C1320,43,1380,37,1440,28.3C1500,20,1560,10,1620,11.7C1680,13,1740,27,1800,40C1860,53,1920,67,1980,66.7C2040,67,2100,53,2160,51.7C2220,50,2280,60,2340,55C2400,50,2460,30,2520,21.7C2580,13,2640,17,2700,15C2760,13,2820,7,2880,6.7C2940,7,3000,13,3060,18.3C3120,23,3180,27,3240,25C3300,23,3360,17,3420,11.7C3480,7,3540,3,3600,10C3660,17,3720,33,3780,41.7C3840,50,3900,50,3960,56.7C4020,63,4080,77,4140,81.7C4200,87,4260,83,4290,81.7L4320,80L4320,100L4290,100C4260,100,4200,100,4140,100C4080,100,4020,100,3960,100C3900,100,3840,100,3780,100C3720,100,3660,100,3600,100C3540,100,3480,100,3420,100C3360,100,3300,100,3240,100C3180,100,3120,100,3060,100C3000,100,2940,100,2880,100C2820,100,2760,100,2700,100C2640,100,2580,100,2520,100C2460,100,2400,100,2340,100C2280,100,2220,100,2160,100C2100,100,2040,100,1980,100C1920,100,1860,100,1800,100C1740,100,1680,100,1620,100C1560,100,1500,100,1440,100C1380,100,1320,100,1260,100C1200,100,1140,100,1080,100C1020,100,960,100,900,100C840,100,780,100,720,100C660,100,600,100,540,100C480,100,420,100,360,100C300,100,240,100,180,100C120,100,60,100,30,100L0,100Z"/></svg>